<svg width="48" height="47" viewBox="0 0 48 47" xmlns="http://www.w3.org/2000/svg">
<path d="M25.4401 0.959961C21.9676 0.959961 19.0164 3.13871 17.8201 6.17996C17.6289 6.67871 17.8764 7.23371 18.3751 7.42496C18.8739 7.61621 19.4289 7.36871 19.6201 6.86996C20.5389 4.53371 22.7664 2.87996 25.4401 2.87996C28.8451 2.87996 31.6801 5.71496 31.6801 9.11996C31.6801 12.525 28.8451 15.36 25.4401 15.36H0.960121C0.930121 15.36 0.900121 15.36 0.870121 15.36C0.341371 15.3862 -0.0711288 15.8362 -0.0448787 16.365C-0.0186288 16.8937 0.431372 17.3062 0.960121 17.28H25.4401C29.9064 17.28 33.6001 13.5862 33.6001 9.11996C33.6001 4.65371 29.9064 0.959961 25.4401 0.959961ZM0.780121 23.04C0.251372 23.0887 -0.138628 23.5612 -0.0898787 24.09C-0.0411288 24.6187 0.431372 25.0087 0.960121 24.96H37.8301C37.8601 24.96 37.8901 24.96 37.9201 24.96C42.4464 25.0087 46.0801 28.6725 46.0801 33.21C46.0801 37.7775 42.4126 41.2875 37.8001 41.46C34.2676 41.5462 31.4026 39.4612 30.1801 36.06C30.0751 35.7187 29.7939 35.4637 29.4451 35.3962C29.0926 35.3287 28.7364 35.46 28.5151 35.7375C28.2901 36.015 28.2376 36.3937 28.3801 36.72C29.8464 40.8075 33.5214 43.485 37.8601 43.38C43.4214 43.17 48.0001 38.8162 48.0001 33.21C48.0001 27.6937 43.5826 23.2125 38.1001 23.07C38.0701 23.0587 38.0401 23.0475 38.0101 23.04C37.9689 23.04 37.9314 23.04 37.8901 23.04C37.8714 23.04 37.8489 23.04 37.8301 23.04H0.960121C0.930121 23.04 0.900121 23.04 0.870121 23.04C0.840121 23.04 0.810121 23.04 0.780121 23.04ZM0.780121 29.76C0.251372 29.8087 -0.138628 30.2812 -0.0898787 30.81C-0.0411288 31.3387 0.431372 31.7287 0.960121 31.68H13.9201C13.9501 31.68 13.9801 31.68 14.0101 31.68C17.3739 31.7287 20.1601 34.545 20.1601 37.92C20.1601 41.325 17.3251 44.16 13.9201 44.16C11.4901 44.16 9.42012 42.84 8.43012 40.86C8.31012 40.5075 7.99512 40.26 7.62762 40.2187C7.25637 40.1775 6.89637 40.3537 6.70137 40.6725C6.51012 40.9875 6.51762 41.3887 6.72012 41.7C8.03262 44.3287 10.7814 46.08 13.9201 46.08C18.3864 46.08 22.0801 42.3862 22.0801 37.92C22.0801 33.5137 18.4876 29.8575 14.1001 29.76C14.0589 29.76 14.0214 29.76 13.9801 29.76C13.9614 29.76 13.9389 29.76 13.9201 29.76H0.960121C0.930121 29.76 0.900121 29.76 0.870121 29.76C0.840121 29.76 0.810121 29.76 0.780121 29.76Z" fill="transparent" />
</svg>
